<svg xmlns="http://www.w3.org/2000/svg" viewBox="0 0 64 64" role="img" aria-label="Rolack Trading">
  <defs>
    <linearGradient id="g" x1="0" y1="0" x2="1" y2="1">
      <stop offset="0" stop-color="#f7e7a6"/>
      <stop offset="0.45" stop-color="#d4af37"/>
      <stop offset="1" stop-color="#8a6a12"/>
    </linearGradient>
  </defs>
  <rect width="64" height="64" rx="14" fill="#050505"/>
  <circle cx="32" cy="32" r="24" fill="none" stroke="url(#g)" stroke-width="4"/>
  <path
    d="M24 46V18h12c6.1 0 10 3.2 10 8.2 0 3.9-2.2 6.6-5.9 7.7L46 46h-7.2l-5-10.6H31.3V46H24Zm7.3-16.2H36c2.7 0 4.3-1.2 4.3-3.3 0-2.1-1.6-3.3-4.3-3.3h-4.7v6.6Z"
    fill="url(#g)"
  />
  <path d="M44.5 24.5l6 6" stroke="url(#g)" stroke-width="2" stroke-linecap="round" opacity="0.9"/>
  <path d="M44.5 31.5l6 6" stroke="url(#g)" stroke-width="2" stroke-linecap="round" opacity="0.7"/>
  <path d="M44.5 38.5l6 6" stroke="url(#g)" stroke-width="2" stroke-linecap="round" opacity="0.5"/>
</svg>

